<svg height='100px' width='100px'  fill="#000000" xmlns="http://www.w3.org/2000/svg" xmlns:xlink="http://www.w3.org/1999/xlink" version="1.1" x="0px" y="0px" viewBox="0 0 100 100" style="enable-background:new 0 0 100 100;" xml:space="preserve"><path d="M41.7,35.5h-7.1c-0.4,0-0.7,0.4-0.7,0.8v23.3c0,0.5,0.3,0.8,0.7,0.8h7.1c0.4,0,0.7-0.4,0.7-0.8V36.4  C42.4,35.9,42.1,35.5,41.7,35.5z"></path><path d="M44.2,1.2c-23,0-41.8,18.7-41.8,41.8c0,23,18.7,41.8,41.8,41.8c7.5,0,14.9-2.1,21.4-6l1.9-1.2l19.7,19.7  c1.2,1.2,2.7,1.8,4.4,1.8c1.7,0,3.2-0.6,4.4-1.8c1.2-1.2,1.8-2.7,1.8-4.4c0-1.7-0.7-3.2-1.8-4.4L76.9,69.2l1.9-2.9  c4.7-6.9,7.2-15,7.2-23.4C86,19.9,67.2,1.2,44.2,1.2z M44.2,74.3c-17.3,0-31.4-14.1-31.4-31.4s14.1-31.4,31.4-31.4  s31.4,14.1,31.4,31.4S61.5,74.3,44.2,74.3z"></path><path d="M53.5,42.9h-7.1c-0.4,0-0.7,0.4-0.7,0.8v15.9c0,0.5,0.3,0.8,0.7,0.8h7.1c0.4,0,0.7-0.4,0.7-0.8V43.7  C54.2,43.3,53.8,42.9,53.5,42.9z"></path><path d="M30.3,47h-7.1c-0.4,0-0.7,0.3-0.7,0.6v12.2c0,0.4,0.3,0.6,0.7,0.6h7.1c0.4,0,0.7-0.3,0.7-0.6V47.7  C31,47.3,30.7,47,30.3,47z"></path><path d="M65.2,27h-7.1c-0.4,0-0.7,0.4-0.7,0.8v31.8c0,0.5,0.3,0.8,0.7,0.8h7.1c0.4,0,0.7-0.4,0.7-0.8V27.9  C65.9,27.4,65.6,27,65.2,27z"></path></svg>