<svg height='100px' width='100px'  fill="#000000" xmlns="http://www.w3.org/2000/svg" xmlns:xlink="http://www.w3.org/1999/xlink" version="1.1" x="0px" y="0px" viewBox="0 0 100 100" style="enable-background:new 0 0 100 100;" xml:space="preserve"><path d="M87.7,24.1c0.4,0,0.8-0.2,1.1-0.4l10.3-10.3c0.4-0.4,0.6-1.1,0.3-1.6s-0.8-0.9-1.4-0.9h-8.8V2c0-0.6-0.4-1.2-0.9-1.4  c-0.6-0.2-1.2-0.1-1.6,0.3L76.4,11.2c-0.3,0.3-0.4,0.7-0.4,1.1V22l-0.8,0.8c-7.9-7.4-18.6-12-30.3-12c-24.5,0-44.4,19.9-44.4,44.4  s19.9,44.4,44.4,44.4s44.4-19.9,44.4-44.4c0-11.7-4.6-22.3-12-30.3l0.8-0.8C78.1,24.1,87.7,24.1,87.7,24.1z M94.4,13.8l-7.3,7.3h-6  l7.3-7.3H94.4z M78.9,12.9l7.3-7.3v6l-7.3,7.3V12.9z M86.2,55.1c0,22.8-18.6,41.4-41.4,41.4S3.4,77.9,3.4,55.1S22,13.7,44.8,13.7  c10.9,0,20.8,4.2,28.1,11.1l-7.6,7.6c-5.4-4.9-12.7-8-20.6-8c-16.9,0-30.6,13.7-30.6,30.6S28,85.8,44.9,85.8S75.5,72,75.5,55.1  c0-7.9-3-15.1-8-20.6l7.6-7.6C82,34.4,86.2,44.3,86.2,55.1z M43.8,56.2c0.3,0.3,0.7,0.4,1.1,0.4s0.8-0.1,1.1-0.4l9.8-9.8  c1.9,2.4,3.1,5.4,3.1,8.7C58.9,62.8,52.7,69,45,69s-13.9-6.2-13.9-13.9S37.3,41.2,45,41.2c3.3,0,6.3,1.2,8.7,3.1l-9.8,9.8  C43.2,54.7,43.2,55.6,43.8,56.2z M55.7,42.2c-2.9-2.5-6.7-4-10.9-4c-9.3,0-16.9,7.6-16.9,16.9S35.5,72,44.8,72s16.9-7.6,16.9-16.9  c0-4.1-1.5-7.9-4-10.9l7.6-7.6c4.4,4.9,7.1,11.4,7.1,18.4c0,15.2-12.4,27.6-27.6,27.6S17.2,70.2,17.2,55s12.4-27.6,27.6-27.6  c7.1,0,13.5,2.7,18.4,7.1L55.7,42.2z"></path></svg>