<svg height='100px' width='100px'  fill="#000000" xmlns="http://www.w3.org/2000/svg" xmlns:xlink="http://www.w3.org/1999/xlink" version="1.1" x="0px" y="0px" viewBox="0 0 50 50" enable-background="new 0 0 50 50" xml:space="preserve"><path d="M35.717,39.762c0.146-0.111,0.277-0.232,0.416-0.344c-0.014,0.006-0.014,0.029-0.027,0.039c0,0-2.098,3.559-9.213,3.877  C16.781,43.775,6.034,32.129,6.353,22.776c0.146-4.396,1.83-7.566,3.394-9.633c-0.683,1.046-1.195,2.208-1.515,3.52  c-0.504,2.096-0.499,4.4,0.028,6.85c0.533,2.502,1.563,4.957,3.06,7.3c1.452,2.3,3.248,4.333,5.35,6.075  c2.081,1.723,4.317,3.031,6.642,3.873c1.921,0.707,3.824,1.064,5.658,1.064c0.402,0,0.799-0.014,1.188-0.053  C32.285,41.588,34.154,40.91,35.717,39.762z M46.295,7.256c-0.078-0.097-0.229-0.111-0.324-0.029L25.15,23.996  c-0.111,0.073-0.126,0.218-0.043,0.324c0.048,0.063,0.111,0.087,0.184,0.087c0.053,0,0.106-0.01,0.15-0.053L46.26,7.59  C46.357,7.508,46.377,7.363,46.295,7.256z M42.156,7.919c-0.602,0.291-2.717,4.057-2.717,4.057s3.791-3.088,4.26-3.461  C43.41,7.76,42.766,7.624,42.156,7.919z M44.475,9.435c-0.469,0.382-4.246,3.48-4.246,3.48s4.105-1.316,4.521-1.854  C45.152,10.519,45.152,9.87,44.475,9.435z M26.824,22.035c-0.072-0.058-0.121-0.145-0.188-0.198  c-0.354-0.305-0.741-0.566-1.143-0.746c-0.406-0.189-0.828-0.305-1.244-0.334c-0.411-0.029-0.789,0.034-1.113,0.179  c-0.324,0.14-0.586,0.358-0.794,0.639c-0.198,0.281-0.334,0.629-0.387,1.021c-0.044,0.387-0.015,0.833,0.111,1.302  c0.135,0.47,0.344,0.925,0.619,1.341c0.281,0.417,0.61,0.79,0.992,1.114c0.373,0.319,0.779,0.58,1.21,0.76  c0.427,0.188,0.862,0.285,1.284,0.301c0.43,0,0.799-0.088,1.107-0.252c0.311-0.165,0.563-0.402,0.742-0.697  c0.178-0.301,0.285-0.644,0.318-1.041c0.033-0.387-0.023-0.813-0.16-1.264c-0.105-0.358-0.275-0.707-0.469-1.031l-2.106,1.694  l-0.314,0.058c-0.208,0-0.416-0.097-0.547-0.267c-0.121-0.15-0.175-0.329-0.155-0.518c0.024-0.184,0.121-0.353,0.257-0.474  L26.824,22.035z M35.359,19.141c-0.32-0.46-0.691-0.886-1.035-1.332l-2.271,1.83c0.209,0.261,0.426,0.518,0.625,0.799  c0.842,1.234,1.535,2.589,2.004,3.998c0.484,1.438,0.691,2.822,0.664,4.101c-0.029,1.301-0.307,2.497-0.818,3.533  c-0.51,1.061-1.279,1.945-2.252,2.59c-1.012,0.658-2.24,1.064-3.68,1.128c-1.465,0.067-2.991-0.223-4.496-0.809  c-1.521-0.595-3.002-1.495-4.353-2.628c-1.36-1.139-2.565-2.494-3.538-3.999c-0.969-1.501-1.694-3.127-2.082-4.802  c-0.396-1.646-0.431-3.166-0.169-4.507c0.266-1.316,0.804-2.444,1.573-3.335c0.75-0.886,1.718-1.535,2.855-1.922  c1.104-0.373,2.372-0.499,3.757-0.334c1.355,0.169,2.701,0.595,3.989,1.225c1.273,0.629,2.488,1.452,3.596,2.43  c0.504,0.44,0.984,0.924,1.439,1.438l2.273-1.839c-0.658-0.736-1.35-1.438-2.08-2.082c-1.502-1.336-3.152-2.483-4.885-3.354  c-1.757-0.9-3.607-1.53-5.49-1.806c-1.932-0.286-3.723-0.179-5.301,0.281c-1.631,0.474-3.055,1.321-4.173,2.493  c-1.171,1.215-2.023,2.779-2.464,4.618c-0.455,1.902-0.479,4.095,0.034,6.477c0.518,2.445,1.544,4.832,2.938,7.034  c1.413,2.218,3.181,4.212,5.189,5.872c1.975,1.637,4.153,2.918,6.39,3.732c2.179,0.803,4.385,1.146,6.487,0.963  c2.027-0.18,3.752-0.838,5.131-1.85c1.332-0.982,2.348-2.294,3.016-3.824c0.654-1.486,0.979-3.189,0.953-5.015  c-0.004-1.776-0.344-3.684-1.035-5.654C37.475,22.655,36.521,20.82,35.359,19.141z M27.881,21.188l2.332-1.883  c-0.373-0.402-0.754-0.794-1.162-1.147c-0.938-0.833-1.979-1.53-3.058-2.052c-1.09-0.528-2.232-0.881-3.374-1.007  c-1.162-0.121-2.228-0.004-3.146,0.334c-0.939,0.338-1.738,0.9-2.353,1.646c-0.63,0.76-1.056,1.714-1.259,2.808  c-0.198,1.118-0.16,2.387,0.174,3.747c0.344,1.384,0.949,2.725,1.748,3.959c0.813,1.234,1.806,2.357,2.919,3.297  c1.113,0.935,2.333,1.68,3.592,2.188c1.244,0.499,2.503,0.75,3.728,0.712c1.195-0.044,2.23-0.354,3.082-0.887  c0.838-0.518,1.486-1.244,1.938-2.115c0.445-0.856,0.701-1.854,0.727-2.947c0.043-1.08-0.121-2.242-0.523-3.457  c-0.396-1.205-0.979-2.353-1.689-3.403c-0.141-0.204-0.305-0.387-0.455-0.581l-2.309,1.869c0,0.01,0.01,0.02,0.01,0.024  c0.41,0.595,0.734,1.253,0.943,1.936c0.213,0.688,0.295,1.346,0.262,1.936c-0.045,0.596-0.199,1.152-0.471,1.607  c-0.262,0.465-0.639,0.842-1.113,1.104c-0.479,0.267-1.045,0.416-1.703,0.412c-0.664,0-1.341-0.16-2.004-0.436  c-0.663-0.276-1.307-0.688-1.902-1.187c-0.581-0.503-1.113-1.089-1.544-1.748c-0.436-0.648-0.761-1.365-0.959-2.096  c-0.193-0.731-0.237-1.418-0.146-2.028c0.088-0.605,0.296-1.132,0.62-1.563c0.319-0.426,0.74-0.76,1.239-0.968  c0.499-0.203,1.079-0.295,1.729-0.247c0.639,0.053,1.272,0.237,1.897,0.527c0.609,0.291,1.201,0.678,1.738,1.147  C27.557,20.839,27.725,21.014,27.881,21.188z"></path></svg>