<svg height='100px' width='100px'  fill="#000000" xmlns="http://www.w3.org/2000/svg" viewBox="0 0 64 64" x="0px" y="0px"><title>Bullseye-target-Arrow-goal</title><g><path d="M55.96,31H48.949a16.9,16.9,0,0,0-4.26-10.275L45.414,20H50a1,1,0,0,0,.707-.293l1.152-1.152A23.718,23.718,0,0,1,55.96,31ZM37,32a5.015,5.015,0,1,1-2.247-4.167l-3.46,3.46,1.414,1.414,3.46-3.46A4.969,4.969,0,0,1,37,32Zm-.816-5.6A6.947,6.947,0,0,0,33,25.08V17.051a14.912,14.912,0,0,1,8.861,3.674ZM31,25.08A7,7,0,0,0,25.08,31H17.051A15,15,0,0,1,31,17.051ZM25.08,33A7,7,0,0,0,31,38.92v8.029A15,15,0,0,1,17.051,33ZM33,38.92A7,7,0,0,0,38.92,33h8.029A15,15,0,0,1,33,46.949ZM38.92,31A6.947,6.947,0,0,0,37.6,27.816l5.677-5.677A14.912,14.912,0,0,1,46.949,31ZM56,9h2.586l-9,9H46V14.414l9-9V8A1,1,0,0,0,56,9ZM45.445,12.141l-1.152,1.152A1,1,0,0,0,44,14v4.586l-.725.725A16.9,16.9,0,0,0,33,15.051V8.04A23.71,23.71,0,0,1,45.445,12.141ZM31,8.025v7.026A16.994,16.994,0,0,0,15.051,31H8.025A24.027,24.027,0,0,1,31,8.025ZM8.025,33h7.026A16.994,16.994,0,0,0,31,48.949v7.026A24.027,24.027,0,0,1,8.025,33ZM33,55.975V48.949A16.994,16.994,0,0,0,48.949,33h7.026A24.027,24.027,0,0,1,33,55.975Z"></path><rect x="6.757" y="52" width="8.485" height="2" transform="translate(-34.255 23.302) rotate(-45)"></rect><polygon points="4 55 3 61 9 60 10 54 4 55"></polygon></g></svg>