<svg height='100px' width='100px'  fill="#000000" xmlns="http://www.w3.org/2000/svg" viewBox="0 0 64 64" x="0px" y="0px"><g><path d="M59,12H58V5a3.009,3.009,0,0,0-3-3H9A3.009,3.009,0,0,0,6,5v7H5a3.009,3.009,0,0,0-3,3V47a3.009,3.009,0,0,0,3,3H25v4H21a3.009,3.009,0,0,0-3,3v4a1,1,0,0,0,1,1H45a1,1,0,0,0,1-1V57a3.009,3.009,0,0,0-3-3H39V50H59a3.009,3.009,0,0,0,3-3V15A3.009,3.009,0,0,0,59,12ZM8,5A1,1,0,0,1,9,4H55a1,1,0,0,1,1,1V8H8Zm0,5H56V37a1,1,0,0,1-1,1H9a1,1,0,0,1-1-1ZM43,56a1,1,0,0,1,1,1v3H20V57a1,1,0,0,1,1-1ZM27,54V50H37v4Zm33-7a1,1,0,0,1-1,1H5a1,1,0,0,1-1-1V44H60Zm0-5H4V15a1,1,0,0,1,1-1H6V37a3.009,3.009,0,0,0,3,3H55a3.009,3.009,0,0,0,3-3V14h1a1,1,0,0,1,1,1Z"></path><path d="M33,45H31a1,1,0,0,0,0,2h2a1,1,0,0,0,0-2Z"></path><path d="M10.445,16.832l3,2a1,1,0,1,0,1.11-1.664L12.8,16l1.752-1.168a1,1,0,1,0-1.11-1.664l-3,2a1,1,0,0,0,0,1.664Z"></path><path d="M23.168,18.555a1,1,0,0,0,1.387.277l3-2a1,1,0,0,0,0-1.664l-3-2a1,1,0,0,0-1.11,1.664L25.2,16l-1.752,1.168A1,1,0,0,0,23.168,18.555Z"></path><path d="M16.5,19.868A.988.988,0,0,0,17,20a1,1,0,0,0,.869-.5l4-7a1,1,0,1,0-1.736-.992l-4,7A1,1,0,0,0,16.5,19.868Z"></path><path d="M40.832,30.445a1,1,0,0,0-1.387-.277l-3,2a1,1,0,0,0,0,1.664l3,2a1,1,0,1,0,1.11-1.664L38.8,33l1.752-1.168A1,1,0,0,0,40.832,30.445Z"></path><path d="M49.168,30.445a1,1,0,0,0,.277,1.387L51.2,33l-1.752,1.168a1,1,0,0,0,1.11,1.664l3-2a1,1,0,0,0,0-1.664l-3-2A1,1,0,0,0,49.168,30.445Z"></path><path d="M47.5,28.132a1,1,0,0,0-1.364.372l-4,7a1,1,0,0,0,.372,1.364,1,1,0,0,0,1.364-.372l4-7A1,1,0,0,0,47.5,28.132Z"></path><path d="M12,5H11a1,1,0,0,0,0,2h1a1,1,0,0,0,0-2Z"></path><path d="M16,5H15a1,1,0,0,0,0,2h1a1,1,0,0,0,0-2Z"></path><path d="M20,5H19a1,1,0,0,0,0,2h1a1,1,0,0,0,0-2Z"></path><path d="M53,5H24a1,1,0,0,0,0,2H53a1,1,0,0,0,0-2Z"></path><path d="M31,17h2a1,1,0,0,0,0-2H31a1,1,0,0,0,0,2Z"></path><path d="M37,17H47a1,1,0,0,0,0-2H37a1,1,0,0,0,0,2Z"></path><path d="M12,23a1,1,0,0,0,1,1h2a1,1,0,0,0,0-2H13A1,1,0,0,0,12,23Z"></path><path d="M19,24h8a1,1,0,0,0,0-2H19a1,1,0,0,0,0,2Z"></path><path d="M13,27h2a1,1,0,0,0,0-2H13a1,1,0,0,0,0,2Z"></path><path d="M13,30H23a1,1,0,0,0,0-2H13a1,1,0,0,0,0,2Z"></path><path d="M18,26a1,1,0,0,0,1,1H29a1,1,0,0,0,0-2H19A1,1,0,0,0,18,26Z"></path><path d="M32,23a1,1,0,0,0,1,1h2a1,1,0,0,0,0-2H33A1,1,0,0,0,32,23Z"></path><path d="M39,24h6a1,1,0,0,0,0-2H39a1,1,0,0,0,0,2Z"></path><path d="M33,27h2a1,1,0,0,0,0-2H33a1,1,0,0,0,0,2Z"></path><path d="M49,24h2a1,1,0,0,0,0-2H49a1,1,0,0,0,0,2Z"></path><path d="M35,28H33a1,1,0,0,0,0,2h2a1,1,0,0,0,0-2Z"></path><path d="M29,28H27a1,1,0,0,0,0,2h2a1,1,0,0,0,0-2Z"></path><path d="M39,27H51a1,1,0,0,0,0-2H39a1,1,0,0,0,0,2Z"></path><path d="M15,32H13a1,1,0,0,0,0,2h2a1,1,0,0,0,0-2Z"></path><path d="M29,32H19a1,1,0,0,0,0,2H29a1,1,0,0,0,0-2Z"></path></g></svg>