<svg height='100px' width='100px'  fill="#000000" xmlns="http://www.w3.org/2000/svg" data-name="Layer 1" viewBox="0 0 68 68" x="0px" y="0px"><title>Artboard 48@5x</title><path d="M33.15,46.07A1,1,0,0,1,34,45.6h0a1,1,0,0,1,.84.47,4.28,4.28,0,0,0,2.7,1.9,4.24,4.24,0,0,0,3.25-.56,4.29,4.29,0,0,0,1.88-2.62s0,0,0,0l0-.16c0-.13,0-.25.06-.38a1.21,1.21,0,0,0,0-.19c0-.15,0-.31,0-.47a.53.53,0,0,1,0-.13,4.31,4.31,0,0,0-.1-.61,1,1,0,0,1,.22-.88,1,1,0,0,1,.84-.34c.23,0,.45,0,.68,0l.37,0a4.07,4.07,0,0,0,.5-.13,2.15,2.15,0,0,0,.36-.11,3.74,3.74,0,0,0,.45-.22,2.37,2.37,0,0,0,.35-.19,3.68,3.68,0,0,0,.44-.34c.08-.08.18-.14.26-.22a4.35,4.35,0,0,0,.55-.67h0a4.25,4.25,0,0,0,.65-2.81,2.58,2.58,0,0,0,0-.39v0a4.46,4.46,0,0,0-1.19-2.19,1,1,0,0,1-.28-.84h0a1,1,0,0,1,.5-.74l.14-.1A4.07,4.07,0,0,0,48,32.2l.27-.26.27-.28.23-.3c.08-.12.16-.23.23-.36l.15-.29a2.62,2.62,0,0,0,.15-.39c.05-.14.1-.28.14-.42a3.35,3.35,0,0,0,.07-.44c0-.13,0-.27.05-.41a2.84,2.84,0,0,0,0-.41c0-.14,0-.28,0-.43a2.74,2.74,0,0,0-.09-.39,2.62,2.62,0,0,0-.11-.4,3.89,3.89,0,0,0-.19-.42,2.16,2.16,0,0,0-.17-.34c-.06-.1-.13-.19-.2-.29a2.34,2.34,0,0,0-.24-.31l-.27-.29-.28-.24-.32-.25c-.14-.09-.29-.16-.44-.24a1.67,1.67,0,0,0-.23-.12,1,1,0,0,1-.55-.6v0h0s0,0,0-.06a1.38,1.38,0,0,1,0-.35,1.15,1.15,0,0,1,.06-.17.86.86,0,0,1,.07-.21,4.32,4.32,0,0,0-.84-5.33l-.05,0a3.81,3.81,0,0,0-.68-.49l0,0a4.11,4.11,0,0,0-.89-.38,1,1,0,0,1-.6-.51,1,1,0,0,1,0-.79,4.32,4.32,0,0,0-2.59-5.51,4.27,4.27,0,0,0-1.46-.25h0a1,1,0,0,1-.79-.36A1,1,0,0,1,38.26,9a4.32,4.32,0,0,0-8.52-1.39,4.06,4.06,0,0,0,0,1.39,1,1,0,0,1-.23.81,1,1,0,0,1-.77.36,4.3,4.3,0,0,0-4.35,4.29,4.34,4.34,0,0,0,.26,1.47,1,1,0,0,1,0,.79,1,1,0,0,1-.6.51,4.36,4.36,0,0,0-1,.47,5.44,5.44,0,0,0-.55.39l-.24.25c-.11.11-.22.22-.32.34a2.35,2.35,0,0,0-.24.37c-.07.11-.15.21-.21.32s-.1.26-.16.39-.11.26-.15.4-.05.26-.08.39S21,20.85,21,21a3.68,3.68,0,0,0,0,.47c0,.12,0,.25,0,.37a3.58,3.58,0,0,0,.11.53,1.63,1.63,0,0,0,.07.3,4.17,4.17,0,0,0,.36.84,1,1,0,0,1,.13.4,1,1,0,0,1-.05.42,1,1,0,0,1-.55.6L21,25a5.24,5.24,0,0,0-.61.34l-.27.21a4.15,4.15,0,0,0-.32.27c-.09.08-.17.18-.26.27a13.5,13.5,0,0,0-.45.61c-.07.12-.12.24-.18.36a3.65,3.65,0,0,0-.18.41,3.31,3.31,0,0,0-.12.42c0,.13-.07.26-.09.39a3,3,0,0,0,0,.42,3.05,3.05,0,0,0,0,.43,2.58,2.58,0,0,0,0,.39,3.39,3.39,0,0,0,.08.44,3.24,3.24,0,0,0,.13.41c.05.13.09.26.15.39L19,31c.07.13.15.25.23.37a3,3,0,0,0,.22.28c.09.11.2.22.3.32l.24.22a4.39,4.39,0,0,0,.56.4l.07,0a1,1,0,0,1,.5.74h0a.94.94,0,0,1,0,.41v0a.93.93,0,0,1-.25.38,4.43,4.43,0,0,0-1.16,2.13l0,.09a3.89,3.89,0,0,0,0,.47,4.17,4.17,0,0,0,0,1.06.57.57,0,0,0,0,.13,4.32,4.32,0,0,0,.19.68.56.56,0,0,1,0,.12,5.49,5.49,0,0,0,.31.59,1.4,1.4,0,0,0,.09.17,3.87,3.87,0,0,0,.45.55l.09.12a4.37,4.37,0,0,0,3.41,1.25,1,1,0,0,1,.83.35,1,1,0,0,1,.22.87,4.7,4.7,0,0,0-.1.83v0a3.89,3.89,0,0,0,.05.76l0,.15a4.4,4.4,0,0,0,.58,1.49,4.3,4.3,0,0,0,7.28,0"></path><path d="M15.6,46.15a1,1,0,0,1,1.68,0,3.32,3.32,0,0,0,2.08,1.46,3.26,3.26,0,0,0,2.49-.44A3.3,3.3,0,0,0,23.33,45c0-.13,0-.27-.06-.41l0-.16c0-.22,0-.45,0-.68h0v-.21a6.21,6.21,0,0,1-3.76-1.81,7.2,7.2,0,0,1-.71-.86l0,0a5.43,5.43,0,0,1-.51-.91.43.43,0,0,1,0-.07,7.8,7.8,0,0,1-.34-1s0,0,0-.07a5.78,5.78,0,0,1-.18-1v0c0-.17,0-.35,0-.53s0-.22,0-.33l0-.37a6,6,0,0,1,.11-.61l.09-.42L18,35c.06-.14.11-.29.17-.43s.24-.43.37-.64l.13-.23-.17-.16a4.93,4.93,0,0,1-.4-.39,3.92,3.92,0,0,1-.27-.33l-.26-.33a4,4,0,0,1-.22-.34,3.67,3.67,0,0,1-.26-.48c0-.08-.09-.16-.13-.25s0,0,0,0a7.09,7.09,0,0,1-.26-.73.25.25,0,0,1,0-.07,1,1,0,0,1,0-.17,3.59,3.59,0,0,1-.08-.35,2.17,2.17,0,0,1,0-.25c0-.12,0-.24-.05-.36s0-.18,0-.26,0-.23,0-.34,0-.2,0-.3,0-.2,0-.3,0-.22,0-.33a2.56,2.56,0,0,1,.05-.27c0-.12.05-.23.08-.35s0-.16.07-.25.07-.22.11-.33a1.77,1.77,0,0,1,.06-.17l0-.07c.1-.23.21-.47.33-.7l0-.05a2.68,2.68,0,0,1,.18-.28c.1-.15.19-.29.3-.43a3,3,0,0,1,.28-.33,2.91,2.91,0,0,1,.3-.31c.1-.11.21-.21.32-.31l.46-.34c.07-.05.13-.11.21-.16a.08.08,0,0,1,0,0c0-.11-.08-.22-.11-.32a1.6,1.6,0,0,1,0-.21c-.06-.24-.11-.48-.15-.73s0-.24-.05-.35a5.77,5.77,0,0,1,0-.72c0-.12,0-.24,0-.36a5.52,5.52,0,0,1,.11-.71,3.23,3.23,0,0,1,.06-.33s0-.06,0-.08a5,5,0,0,1,.3-.85.75.75,0,0,1,.06-.13,6.05,6.05,0,0,1,.92-1.47A.93.93,0,0,1,20,17a1.05,1.05,0,0,1-.25-.81,3.25,3.25,0,0,0-.58-2.47,3.31,3.31,0,0,0-6,1.4,3.83,3.83,0,0,0,0,1.07A1,1,0,0,1,13,17a1,1,0,0,1-.76.35h0A3.33,3.33,0,0,0,8.83,20.6,3.42,3.42,0,0,0,9,21.74,1,1,0,0,1,8.38,23a3.31,3.31,0,0,0-2.19,4.14,4,4,0,0,0,.3.67,1,1,0,0,1,.08.82,1,1,0,0,1-.55.6,3.3,3.3,0,0,0-.31,5.92,1,1,0,0,1,.5.74,1,1,0,0,1-.29.85,3.3,3.3,0,0,0,0,4.68,3.34,3.34,0,0,0,2.35,1,1.31,1.31,0,0,0,.28,0,1,1,0,0,1,.83.34,1,1,0,0,1,.22.88,3.31,3.31,0,0,0,6,2.51"></path><path d="M65,62H53.65V49.45a5.24,5.24,0,0,1-2.1-1.2,5.27,5.27,0,0,1-2.09,1.2V62H36.58V49.77A6.28,6.28,0,0,1,34,48.2a6.31,6.31,0,0,1-2.58,1.57V62H18.54V49.43a5.19,5.19,0,0,1-2.1-1.19,5.28,5.28,0,0,1-2.1,1.21V62H3a1,1,0,0,0,0,2H65a1,1,0,0,0,0-2"></path><path d="M50.71,46.15a1,1,0,0,1,.85-.47h0a1,1,0,0,1,.84.47,3.26,3.26,0,0,0,2.07,1.46,3.31,3.31,0,0,0,4-4,1,1,0,0,1,.22-.88,1,1,0,0,1,.83-.34h.27a3.31,3.31,0,0,0,2.33-5.66,1,1,0,0,1,.22-1.59A3.31,3.31,0,0,0,62,29.26a1,1,0,0,1-.55-.6,1,1,0,0,1,.08-.82,3.31,3.31,0,0,0-1.22-4.51,3.19,3.19,0,0,0-.68-.3,1,1,0,0,1-.6-.51,1,1,0,0,1,0-.78,3.32,3.32,0,0,0-3.11-4.43h0a1.05,1.05,0,0,1-.78-.35,1,1,0,0,1-.24-.81,3.31,3.31,0,1,0-6.54-1.07,3.2,3.2,0,0,0,0,1.07,1,1,0,0,1-.23.81,1,1,0,0,1-.51.32,6.29,6.29,0,0,1,.66,1s0,0,0,0a6.27,6.27,0,0,1,.43.95l0,.08c0,.13.09.26.13.4s0,.27.08.41l.06.32a6.48,6.48,0,0,1,.06.76c0,.1,0,.19,0,.28a7.89,7.89,0,0,1-.08.85c0,.07,0,.14,0,.21a6.05,6.05,0,0,1-.29,1c.07.05.12.11.19.15a5.56,5.56,0,0,1,.54.42l.3.28a5.47,5.47,0,0,1,.45.51c.06.07.12.13.17.2a5.74,5.74,0,0,1,.43.66l.08.15.08.16a6.37,6.37,0,0,1,.36.91s0,0,0,0a6.24,6.24,0,0,1,.26,2.06v.13a6.32,6.32,0,0,1-.13,1c0,.06,0,.12,0,.19a1.77,1.77,0,0,1,0,.2,6.13,6.13,0,0,1-.22.6,1.52,1.52,0,0,0-.06.2l0,.05a2.53,2.53,0,0,1-.12.23,4.59,4.59,0,0,1-.26.49c-.07.12-.15.23-.23.35l-.23.3-.3.36a3.83,3.83,0,0,1-.29.28,3.31,3.31,0,0,1-.27.26c.07.11.12.23.19.34a4.54,4.54,0,0,1,.3.53c.07.14.12.3.18.45s.13.34.18.52.07.27.1.42a6,6,0,0,1,.1.61,2.22,2.22,0,0,1,0,.37c0,.11,0,.22,0,.33a6.25,6.25,0,0,1-.2,1.57.09.09,0,0,0,0,0,6.84,6.84,0,0,1-.35,1l0,0a6.34,6.34,0,0,1-1.27,1.83,6.19,6.19,0,0,1-3.76,1.81,1.41,1.41,0,0,1,0,.2c0,.19,0,.37,0,.55a1.11,1.11,0,0,0,0,.19c0,.17,0,.35-.08.52a3.28,3.28,0,0,0,1.26,2,3.32,3.32,0,0,0,4.78-.88"></path></svg>