<svg height='100px' width='100px'  fill="#000000" xmlns="http://www.w3.org/2000/svg" data-name="Layer 1" viewBox="0 0 48 48" x="0px" y="0px"><title>branch</title><path d="M33.72,18.33a4.05,4.05,0,1,0-5.19,3.89A3.1,3.1,0,0,1,28,24.09c-.78,1-2.49,1.13-4.31,1.3a12.24,12.24,0,0,0-4.12.85V19a4,4,0,1,0-2.43,0V29a4.06,4.06,0,1,0,2.68.09,1.8,1.8,0,0,1,.75-.68,10.33,10.33,0,0,1,3.35-.64c2.13-.2,4.55-.43,6-2.2A5.46,5.46,0,0,0,31,22.17a4.05,4.05,0,0,0,2.75-3.84Zm-15.39-4a.81.81,0,1,1-.81.81A.81.81,0,0,1,18.33,14.28Zm0,19.44a.81.81,0,1,1,.81-.81A.81.81,0,0,1,18.33,33.72Zm11.34-16.2a.81.81,0,1,1-.81.81A.81.81,0,0,1,29.67,17.52Z"></path></svg>