<svg height='100px' width='100px'  fill="#000000" xmlns="http://www.w3.org/2000/svg" xmlns:xlink="http://www.w3.org/1999/xlink" version="1.1" x="0px" y="0px" viewBox="0 0 100 100" enable-background="new 0 0 100 100" xml:space="preserve"><path fill="#000000" d="M50.645,51.721c2.562,4.691,7.683,6.163,11.712,1.652c0.613-0.693,1.885-0.331,2.081,0.545  c2.032,8.54,14.486,10.886,15.411,0.329c0.052-0.594,0.445-1.039,1.074-1.072c2.875-0.082,3.881-1.024,6.243-1.801  c0.184-0.05,0.364-0.05,0.561,0c4.956,1.734,7.386-0.728,7.27-7.367C81.749,49.905,65.183,51.324,50.645,51.721z M15.577,40.344  c2.494,5.536,16.667,5.494,21.92,5.64c10.108,0.29,20.269-0.234,30.296-1.337c7.927-0.858,17.424-1.454,24.809-4.447  c-0.958,0.247-0.28-0.873-0.396-1.991c-0.084-0.915-0.232-1.831-0.445-2.732c-0.364-1.38-0.762-2.776-1.388-4.083  c-1.455-3.039-3.651-5.828-6.475-8.009C65.992,9.534,11.083,11.089,13.296,38.774C14.238,38.89,15.148,39.386,15.577,40.344z   M77.895,31.684c2.125,0,3.85,0.842,3.85,1.881c0,1.039-1.725,1.881-3.85,1.881c-2.126,0-3.853-0.842-3.853-1.881  C74.042,32.525,75.769,31.684,77.895,31.684z M69.654,22.906c2.423,0,4.388,0.823,4.388,1.837c0,1.013-1.965,1.836-4.388,1.836  c-2.425,0-4.389-0.823-4.389-1.836C65.266,23.729,67.229,22.906,69.654,22.906z M62.757,34.013c2.077,0,3.762,0.562,3.762,1.253  c0,0.691-1.685,1.253-3.762,1.253c-2.078,0-3.762-0.562-3.762-1.253C58.995,34.574,60.679,34.013,62.757,34.013z M48.012,30.251  c1.454,0,2.632,0.321,2.632,0.716c0,0.395-1.179,0.716-2.632,0.716c-1.453,0-2.631-0.321-2.631-0.716  C45.381,30.572,46.56,30.251,48.012,30.251z M40.098,23.623c2.324,0,4.209,0.662,4.209,1.478c0,0.816-1.885,1.479-4.209,1.479  c-2.325,0-4.209-0.663-4.209-1.479C35.888,24.284,37.773,23.623,40.098,23.623z M32.664,32.848c2.078,0,3.761,0.581,3.761,1.298  s-1.684,1.299-3.761,1.299c-2.078,0-3.762-0.581-3.762-1.299S30.586,32.848,32.664,32.848z M51.751,73.805  c-12.125,0.349-24.926,1.636-36.852-1.155c-1.223-0.28-2.378-0.677-3.468-1.156c-5.517,2.709-1.106,8.838,1.833,11.331  c2.361,2.015,6.297,1.321,9.352,1.586c5.138,0.463,10.259,0.297,15.395-0.082c6.724-0.479,12.585,0.891,19.31,0.826  c9.117-0.084,43.06,0.444,32.736-15.628C79.552,74.285,58.211,73.608,51.751,73.805z M88.736,53.902  c-3.171,0.297-6.062,0.94-7.152,3.881c-3.567,9.696-15.114,6.327-18.798-1.255c-4.64,4.194-10.026,2.394-12.868-2.578  c-0.761,3.073-2.826,6.078-5.533,7.352c-4.031,1.882-7.93,0.775-10.953-2.38c-0.083-0.082-0.116-0.164-0.165-0.246  c-0.165,0.214-0.413,0.362-0.744,0.33c-2.163-0.148-3.947,1.123-6.08,1.057c-1.187-0.05-2.162-0.81-2.987-1.686  c-2.545,3.801-7.533,5.882-11.944,4.163c-0.976-0.379-1.734-0.908-2.313-1.52c-1.502,3.286-1.387,5.914,3.386,7.416  c4.296,1.371,8.789,1.884,13.281,2.064c8.64,0.365,17.245-0.196,25.884-0.379c7.731-0.164,15.461,0.363,23.194-0.331  c4.69-0.429,10.521-0.857,14.666-3.386c5.155-3.153,2.097-7.647-0.678-11.381C88.653,54.645,88.621,54.265,88.736,53.902z   M10.176,49.97c1.239-0.116,1.716,1.322,1.287,2.247c-1.454,3.137-1.668,8.127,3.105,8.044c3.47-0.065,5.633-2.081,7.517-4.807  c0.577-0.826,1.684-0.842,2.245,0c2.578,3.833,5.188,0.826,8.458,1.535c0.23,0.034,0.379,0.167,0.495,0.314  c0.429-0.595,1.305-0.892,2.032-0.264c2.61,2.146,6.144,3.401,8.919,0.728c1.818-1.752,2.66-3.785,3.534-5.98  c-0.132,0-0.265,0.017-0.395,0.017c-9.4,0.166-28.66,1.387-35.448-7.88c-0.677-0.032-1.355-0.429-1.686-1.271  c-0.181-0.479-0.329-0.926-0.478-1.388c-1.852,1.057-3.552,2.526-4.329,4.378C3.816,49.44,7.021,50.25,10.176,49.97z"></path></svg>