<svg height='100px' width='100px'  fill="#000000" xmlns="http://www.w3.org/2000/svg" xmlns:xlink="http://www.w3.org/1999/xlink" version="1.1" x="0px" y="0px" viewBox="0 0 512 512" enable-background="new 0 0 512 512" xml:space="preserve"><g><path d="M265.317,511.002c-8.837,0-16-7.164-16-16V360c0-8.836,7.163-16,16-16s16,7.164,16,16v135.002   C281.317,503.838,274.154,511.002,265.317,511.002z"></path><path d="M190.187,240.793c-7.067-2.047-11.827-8.65-11.535-16.002c0.016-0.405,0.034-0.81,0.034-1.218   c0-16.938-13.78-30.719-30.719-30.719c-16.938,0-30.718,13.78-30.718,30.719c0,0.446,0.017,0.888,0.035,1.329   c0.318,7.292-4.34,13.875-11.323,16.002c-13.01,3.962-21.751,15.772-21.751,29.387c0,16.938,13.78,30.719,30.719,30.719   c8.309,0,16.095-3.272,21.925-9.215c3.009-3.067,7.124-4.795,11.421-4.795s8.412,1.728,11.421,4.795   c5.83,5.942,13.616,9.215,21.925,9.215c16.938,0,30.719-13.78,30.719-30.719C212.339,256.701,203.229,244.571,190.187,240.793z"></path><path d="M148.274,476.069c-8.837,0-16-7.164-16-16V303c0-8.836,7.163-16,16-16s16,7.164,16,16v157.069   C164.274,468.905,157.111,476.069,148.274,476.069z"></path><path d="M363.726,476.069c-8.837,0-16-7.164-16-16V303c0-8.836,7.163-16,16-16s16,7.164,16,16v157.069   C379.726,468.905,372.562,476.069,363.726,476.069z"></path><path d="M508.808,504.562c0.159-0.212,0.326-0.418,0.474-0.639c0.136-0.203,0.254-0.419,0.382-0.628   c0.14-0.229,0.288-0.453,0.416-0.69c0.117-0.217,0.214-0.445,0.322-0.668c0.117-0.243,0.244-0.48,0.349-0.729   c0.098-0.232,0.174-0.474,0.26-0.712c0.092-0.251,0.195-0.498,0.275-0.755c0.08-0.257,0.135-0.524,0.202-0.787   c0.063-0.248,0.138-0.49,0.189-0.743c0.058-0.286,0.09-0.581,0.133-0.872c0.035-0.238,0.083-0.472,0.108-0.714   c0.032-0.313,0.035-0.634,0.048-0.952c0.009-0.225,0.034-0.445,0.034-0.672c0-0.003,0-0.005,0-0.008c0-0.003,0-0.006,0-0.008   l-0.132-129.727c-0.009-8.831-7.17-15.984-16-15.984c-17.28,0-34.017,4.95-48.373,14.144   c-11.961-9.108-26.642-14.144-41.976-14.144c-38.247,0-69.363,31.116-69.363,69.363c0,14.296,4.286,27.908,12.258,39.398   c-3.618,6.639-6.543,13.685-8.734,20.966H172.344c-10.58-35.458-38.011-62.523-71.729-70.463   c-5.569-15.323-15.306-29.038-28.097-39.363c-15.896-12.833-35.922-19.901-56.386-19.901c-8.83,0-15.991,7.153-16,15.984L0,494.986   c0,0.003,0,0.005,0,0.008c0,0.002,0,0.005,0,0.008c0,0.227,0.025,0.448,0.034,0.672c0.013,0.318,0.016,0.639,0.048,0.952   c0.024,0.241,0.073,0.475,0.108,0.714c0.043,0.292,0.075,0.586,0.133,0.872c0.052,0.252,0.126,0.495,0.189,0.743   c0.067,0.262,0.123,0.53,0.202,0.787c0.08,0.257,0.182,0.504,0.275,0.755c0.087,0.238,0.163,0.48,0.26,0.712   c0.105,0.249,0.231,0.486,0.349,0.729c0.107,0.223,0.205,0.451,0.322,0.668c0.128,0.237,0.276,0.46,0.416,0.69   c0.127,0.209,0.245,0.425,0.382,0.628c0.148,0.22,0.315,0.426,0.474,0.639c0.148,0.198,0.287,0.402,0.443,0.593   c0.166,0.202,0.349,0.388,0.525,0.582c0.168,0.185,0.328,0.377,0.504,0.554c0.181,0.181,0.377,0.346,0.566,0.519   c0.188,0.172,0.37,0.352,0.567,0.515c0.195,0.162,0.404,0.306,0.607,0.458c0.206,0.155,0.406,0.318,0.62,0.463   c0.212,0.144,0.437,0.269,0.656,0.403c0.219,0.134,0.432,0.276,0.658,0.4c0.227,0.124,0.466,0.228,0.699,0.341   c0.231,0.112,0.457,0.234,0.695,0.335c0.242,0.103,0.493,0.185,0.741,0.276c0.241,0.089,0.477,0.188,0.724,0.265   c0.255,0.08,0.52,0.138,0.781,0.206c0.249,0.065,0.494,0.139,0.748,0.192c0.266,0.055,0.541,0.087,0.812,0.129   c0.258,0.04,0.511,0.09,0.772,0.118c0.271,0.028,0.549,0.032,0.823,0.047c0.252,0.013,0.501,0.042,0.756,0.043L159.732,512   c0.038,0,0.074,0,0.111,0c1.904,0,3.762-0.356,5.51-0.998h181.292c1.748,0.642,3.607,0.998,5.511,0.998c0.037,0,0.074,0,0.111,0   l143.844-0.998c0.255-0.002,0.503-0.03,0.756-0.043c0.275-0.015,0.552-0.019,0.823-0.047c0.261-0.028,0.515-0.078,0.772-0.118   c0.271-0.042,0.545-0.074,0.812-0.129c0.254-0.053,0.499-0.128,0.748-0.192c0.261-0.068,0.525-0.125,0.781-0.206   c0.247-0.077,0.483-0.176,0.724-0.265c0.248-0.091,0.499-0.173,0.741-0.276c0.237-0.101,0.463-0.222,0.695-0.335   c0.234-0.113,0.472-0.217,0.699-0.341c0.226-0.124,0.439-0.266,0.658-0.4c0.219-0.134,0.444-0.259,0.656-0.403   c0.214-0.145,0.414-0.308,0.62-0.463c0.203-0.153,0.412-0.297,0.607-0.458c0.197-0.163,0.378-0.343,0.567-0.515   c0.189-0.173,0.385-0.337,0.566-0.519c0.176-0.177,0.336-0.369,0.504-0.554c0.176-0.194,0.359-0.38,0.525-0.582   C508.522,504.964,508.661,504.759,508.808,504.562z"></path><g><path d="M85.879,214.67c3.292-23.061,19.18-42.107,40.445-49.953L104.703,29.593C101.916,12.169,87.646,0,70,0    S38.084,12.169,35.297,29.592L0.505,247.03c-0.74,4.626,0.584,9.344,3.624,12.909c3.04,3.565,7.489,5.619,12.175,5.619h36.084    C54.001,243.669,66.727,224.594,85.879,214.67z"></path></g><g><path d="M54,285.135v177.883c0,8.836,7.163,16,16,16s16-7.164,16-16V325.912C70.189,317.655,58.32,302.862,54,285.135z"></path></g><path d="M405.638,240.793c-7.067-2.047-11.827-8.65-11.535-16.002c0.016-0.405,0.034-0.81,0.034-1.218   c0-16.938-13.78-30.719-30.719-30.719c-16.938,0-30.718,13.78-30.718,30.719c0,0.454,0.018,0.903,0.037,1.352   c0.307,7.285-4.351,13.855-11.325,15.979c-13.01,3.962-21.751,15.772-21.751,29.387c0,16.938,13.78,30.719,30.719,30.719   c8.309,0,16.095-3.272,21.925-9.215c3.009-3.067,7.124-4.795,11.421-4.795s8.412,1.728,11.421,4.795   c5.83,5.942,13.616,9.215,21.925,9.215c16.938,0,30.719-13.78,30.719-30.719C427.79,256.701,418.681,244.571,405.638,240.793z"></path><g><path d="M330.438,333.009c-0.02,0-0.039,0.001-0.058,0.001c-34.583,0-62.719-28.136-62.719-62.719    c0-23.85,13.147-44.988,33.669-55.621c1.059-7.416,3.427-14.413,6.851-20.761l-7.861-49.13    c-2.812-17.573-17.204-29.847-35.001-29.847c-0.001,0,0,0-0.001,0c-17.796,0-32.19,12.274-35.003,29.847l-11.958,74.737    c15.917,11.588,25.983,30.373,25.983,50.775c0,27.942-18.372,51.667-43.668,59.751l-5.698,35.614    c-0.74,4.626,0.584,9.344,3.624,12.909c3.04,3.565,7.489,5.619,12.175,5.619h109.092c4.686,0,9.135-2.053,12.175-5.619    c3.04-3.565,4.364-8.283,3.624-12.909L330.438,333.009z"></path></g><g><path d="M408.078,332.023v56.046c0,8.836,7.163,16,16,16s16-7.164,16-16v-72.19C431.378,324.091,420.341,329.842,408.078,332.023z    "></path><path d="M427.79,270.291c0-12.725-7.988-24.168-19.712-28.675v57.347C419.594,294.527,427.79,283.351,427.79,270.291z"></path></g><g><path d="M510.907,247.03L476.116,29.592C473.328,12.168,459.058,0,441.412,0c-17.645,0-31.915,12.169-34.702,29.592l-7.833,48.951    c6.375,9.357,10.645,20.258,12.083,32.028c24.922,11.939,41.509,37.525,41.509,65.767c0,17.124-5.951,32.874-15.875,45.327    c13.11,10.719,21.681,26.542,23.01,43.893h35.504c4.686,0,9.135-2.053,12.175-5.619    C510.323,256.374,511.647,251.656,510.907,247.03z"></path><path d="M417.439,191.757c1.947-4.761,3.029-9.965,3.029-15.419c0-18.083-12.121-34.223-29.478-39.251    c-0.48-0.139-0.947-0.303-1.404-0.483l-4.5,28.121C398.72,169.762,410.134,179.407,417.439,191.757z"></path></g><path d="M390.991,137.087c-7.063-2.046-11.823-8.645-11.536-15.994c0.021-0.541,0.045-1.083,0.045-1.629   c0-22.538-18.336-40.874-40.874-40.874c-13.777,0-25.974,6.858-33.383,17.333c13.882,10.166,23.762,25.597,26.675,43.8   l4.371,27.316c8.216-3.959,17.416-6.186,27.129-6.186c22.977,0,43.096,12.428,54.02,30.907c1.948-4.762,3.031-9.967,3.031-15.423   C420.469,158.256,408.348,142.115,390.991,137.087z"></path><path d="M198.717,139.722c4.543-28.388,26.018-50.046,53.223-55.463C238.566,68.372,218.556,58.25,196.21,58.25   c-19.914,0-37.984,8.032-51.15,21.022l13.191,82.441c13.222,2.191,25.057,8.533,34.126,17.633L198.717,139.722z"></path></g></svg>