<?xml version="1.0" encoding="UTF-8" standalone="no"?> <!-- Created with Vectornator for iOS (http://vectornator.io/) --><!DOCTYPE svg PUBLIC "-//W3C//DTD SVG 1.1//EN" "http://www.w3.org/Graphics/SVG/1.1/DTD/svg11.dtd">
<svg height="100%" style="fill-rule:evenodd;clip-rule:evenodd;stroke-linecap:round;stroke-linejoin:round;" xmlns:xlink="http://www.w3.org/1999/xlink" xmlns="http://www.w3.org/2000/svg" xml:space="preserve" width="100%" xmlns:vectornator="http://vectornator.io" version="1.1" viewBox="0 0 110 110">
<metadata>
<vectornator:setting key="DimensionsVisible" value="1"/>
<vectornator:setting key="SnapToGrid" value="0"/>
<vectornator:setting key="SnapToPoints" value="0"/>
<vectornator:setting key="GuidesVisible" value="1"/>
<vectornator:setting key="RulersVisible" value="1"/>
<vectornator:setting key="CMYKEnabledKey" value="0"/>
<vectornator:setting key="SnapToEdges" value="0"/>
<vectornator:setting key="DisplayWhiteBackground" value="0"/>
<vectornator:setting key="SnapToGuides" value="1"/>
<vectornator:setting key="GridSpacing" value="36"/>
<vectornator:setting key="Units" value="Pixels"/>
<vectornator:setting key="DynamicGuides" value="1"/>
<vectornator:setting key="New" value="1"/>
</metadata>
<defs/>
<g id="Layer 1" vectornator:layerName="Layer 1">
<g opacity="1">
<path d="M6.36626+79.025L14.6863+30.015L27.2963+30.015L37.1113+56.145L46.8613+30.015L59.4713+30.015L67.7913+79.025L55.1163+79.025L50.8913+50.815L39.3213+79.025L34.2513+79.025L23.2663+50.815L19.0413+79.025L6.36626+79.025Z" opacity="1" fill="#000000"/>
<path d="M82.7875+64.205C82.7875+65.0284+82.9392+65.8084+83.2425+66.545C83.5458+67.2817+83.9575+67.9209+84.4775+68.4625C84.9975+69.0042+85.615+69.4375+86.33+69.7625C87.045+70.0875+87.8142+70.25+88.6375+70.25C89.4175+70.25+90.165+70.0875+90.88+69.7625C91.595+69.4375+92.2233+69.0042+92.765+68.4625C93.3067+67.9209+93.7292+67.2925+94.0325+66.5775C94.3358+65.8625+94.4875+65.0934+94.4875+64.27C94.4875+62.6234+93.9133+61.2259+92.765+60.0775C91.6167+58.9292+90.2408+58.355+88.6375+58.355C86.9908+58.355+85.6042+58.9292+84.4775+60.0775C83.3508+61.2259+82.7875+62.6017+82.7875+64.205ZM83.2425+42.495C83.2425+44.0117+83.7625+45.3009+84.8025+46.3625C85.8425+47.4242+87.1208+47.955+88.6375+47.955C89.4175+47.955+90.1325+47.8034+90.7825+47.5C91.4325+47.1967+91.9958+46.7959+92.4725+46.2975C92.9492+45.7992+93.3283+45.225+93.61+44.575C93.8917+43.925+94.0325+43.2534+94.0325+42.56C94.0325+41.0867+93.5125+39.8192+92.4725+38.7575C91.4325+37.6959+90.1542+37.165+88.6375+37.165C87.1208+37.165+85.8425+37.685+84.8025+38.725C83.7625+39.765+83.2425+41.0217+83.2425+42.495ZM79.6025+53.155C74.4892+51.0317+71.9325+47.435+71.9325+42.365C71.9325+40.285+72.3442+38.4109+73.1675+36.7425C73.9908+35.0742+75.1283+33.6334+76.58+32.42C78.0317+31.2067+79.7867+30.275+81.845+29.625C83.9033+28.975+86.1675+28.65+88.6375+28.65C91.1075+28.65+93.3717+28.975+95.43+29.625C97.4883+30.275+99.2433+31.2067+100.695+32.42C102.147+33.6334+103.284+35.0742+104.107+36.7425C104.931+38.4109+105.343+40.285+105.343+42.365C105.343+43.665+105.213+44.8242+104.952+45.8425C104.692+46.8609+104.248+47.7925+103.62+48.6375C102.992+49.4825+102.168+50.2734+101.15+51.01C100.132+51.7467+98.8642+52.4617+97.3475+53.155C104.021+55.755+107.357+59.9584+107.357+65.765C107.357+67.845+106.892+69.7734+105.96+71.55C105.028+73.3267+103.728+74.865+102.06+76.165C100.392+77.465+98.42+78.4834+96.145+79.22C93.87+79.9567+91.3675+80.325+88.6375+80.325C85.9942+80.325+83.535+79.9675+81.26+79.2525C78.985+78.5375+77.0025+77.53+75.3125+76.23C73.6225+74.93+72.3008+73.3917+71.3475+71.615C70.3942+69.8384+69.9175+67.8884+69.9175+65.765C69.9175+59.8284+73.1458+55.625+79.6025+53.155Z" opacity="1" fill="#000000"/>
</g>
</g>
</svg>
