<svg height='100px' width='100px'  fill="#000000" xmlns="http://www.w3.org/2000/svg" xmlns:xlink="http://www.w3.org/1999/xlink" version="1.1" x="0px" y="0px" viewBox="0 0 50 50" enable-background="new 0 0 50 50" xml:space="preserve"><g><path d="M46.3,45.6c0.3-1.7-1.7-3.4-4.3-3c-0.3-1.6-2.6-2.7-4.9-2c-1.3-1.6-4.3-1.7-5.9-0.1c-1.4-1.4-4.3-1.4-5.7,0   c-1.4-1.4-4.3-1.4-5.7,0c-1.7-1.7-5.3-1.3-6.1,0.7c-2.1-1.4-5.4-0.6-5.9,1.6c-2.7-0.4-4.7,1.3-4.3,3c-1,0.7-1.4,1.4-1.4,2.3h45.7   C47.9,47,47.3,46.3,46.3,45.6z"></path><path d="M7.6,10.7c0,0.3-4.3,7.7,3.9,10.7c1.9,3.7,5,6.1,9.6,7.3c0.4,0.1,0.9,0.1,1.4,0.3c-0.6,2.4-1.1,4.7-0.9,7.4   c0.1,0,2.6,0,2.9,0c-0.1-1-0.1-1.9,0-3c0.7-0.1,1.4-0.3,2-0.4c5-1.3,8.4-4.1,10.1-8.6c1.6-0.4,3.9-1.6,4.9-3.4   c1.7-3.1-0.4-7.6-0.4-7.6c-0.1,0.1-9.6,0.9-7,9.7c-1.4,3.9-4.4,6.1-9,7.1c0.3-0.9,0.4-1.7,0.7-2.7c1.3-4.7,2.9-10.1-0.4-17   c0-10.7-9.9-8.3-10.1-8.4c0.1,0.3-1.9,9.9,7.9,10.1c2.4,5.4,1.4,9.6,0.3,13.9c-4.1-0.7-7-2.6-8.7-5.3C17.6,11.6,7.7,11,7.6,10.7z"></path></g></svg>