<svg height='100px' width='100px'  fill="#000000" xmlns="http://www.w3.org/2000/svg" xmlns:xlink="http://www.w3.org/1999/xlink" version="1.1" x="0px" y="0px" viewBox="0 0 64 64" style="enable-background:new 0 0 64 64;" xml:space="preserve"><g><circle cx="58" cy="52" r="1"></circle><circle cx="54" cy="52" r="1"></circle><circle cx="50" cy="52" r="1"></circle><rect x="21" y="5" width="2" height="2"></rect><rect x="13" y="5" width="2" height="2"></rect><rect x="17" y="5" width="2" height="2"></rect><path d="M15,27.974V41h22V27.974c1.207-0.914,2-2.348,2-3.974v-2.181L35.693,13H16.307L13,21.819V24   C13,25.627,13.793,27.061,15,27.974z M21,23v1c0,1.654-1.346,3-3,3s-3-1.346-3-3v-1H21z M23,23h6v1c0,1.654-1.346,3-3,3   s-3-1.346-3-3V23z M25,39h-4v-6h4V39z M35,39h-8v-8h-8v8h-2V28.899C17.323,28.965,17.658,29,18,29c1.641,0,3.088-0.806,4-2.031   C22.912,28.194,24.359,29,26,29s3.088-0.806,4-2.031C30.912,28.194,32.359,29,34,29c0.342,0,0.677-0.035,1-0.101V39z M34,27   c-1.654,0-3-1.346-3-3v-1h6v1C37,25.654,35.654,27,34,27z M34.307,15l2.25,6h-5.803l-1.473-6H34.307z M27.219,15l1.5,6h-5.438   l1.5-6H27.219z M17.693,15h5.025l-1.499,6h-5.776L17.693,15z"></path><path d="M39,40c0,0.347,0.18,0.668,0.475,0.851C39.635,40.95,39.817,41,40,41c0.153,0,0.306-0.035,0.447-0.105l10-5   C50.786,35.725,51,35.379,51,35s-0.214-0.725-0.553-0.895l-10-5c-0.311-0.154-0.679-0.139-0.973,0.044   C39.18,29.332,39,29.653,39,30V40z M41,31.618L47.764,35L41,38.382V31.618z"></path><path d="M58,15h-3V4c0-1.654-1.346-3-3-3H12c-1.654,0-3,1.346-3,3v11H6c-2.757,0-5,2.243-5,5v32c0,2.757,2.243,5,5,5h15v4h-4v2h30   v-2h-4v-4h15c2.757,0,5-2.243,5-5V20C63,17.243,60.757,15,58,15z M12,45h40c1.654,0,3-1.346,3-3V21h2v26H7V21h2v21   C9,43.654,10.346,45,12,45z M11,11h42v31c0,0.552-0.448,1-1,1H12c-0.552,0-1-0.448-1-1V11z M12,3h40c0.552,0,1,0.449,1,1v5H11V4   C11,3.449,11.448,3,12,3z M41,61H23v-4h18V61z M61,52c0,1.654-1.346,3-3,3H6c-1.654,0-3-1.346-3-3V20c0-1.654,1.346-3,3-3h3v2H7   c-1.103,0-2,0.897-2,2v26c0,1.103,0.897,2,2,2h50c1.103,0,2-0.897,2-2V21c0-1.103-0.897-2-2-2h-2v-2h3c1.654,0,3,1.346,3,3V52z"></path><rect x="41" y="25" width="10" height="2"></rect><rect x="49" y="21" width="2" height="2"></rect><rect x="41" y="21" width="6" height="2"></rect><rect x="41" y="17" width="4" height="2"></rect><rect x="47" y="17" width="4" height="2"></rect><rect x="41" y="13" width="10" height="2"></rect></g></svg>