<svg height='100px' width='100px'  fill="#000000" xmlns="http://www.w3.org/2000/svg" xmlns:xlink="http://www.w3.org/1999/xlink" xmlns:sketch="http://www.bohemiancoding.com/sketch/ns" viewBox="0 0 100 100" version="1.1" x="0px" y="0px"><title>1 copy 64</title><desc>Created with Sketch.</desc><g stroke="none" stroke-width="1" fill="none" fill-rule="evenodd" sketch:type="MSPage"><g sketch:type="MSArtboardGroup" fill="#000000"><path d="M89.9173333,40.464 C89.9173333,40.416 89.9653333,40.3973333 89.9653333,40.3493333 C89.9653333,40.3226667 89.9386667,40.3013333 89.9333333,40.2773333 C89.9386667,40.2213333 89.9493333,40.1733333 89.9493333,40.1146667 L85.1306667,11.1973333 C85.0213333,10.504 84.4106667,10 83.72,10 L16.256,10 C15.552,10 14.9546667,10.504 14.84,11.1973333 L10,40.3493333 C10,44.136 11.912,47.4746667 14.824,49.4746667 L14.824,88.536 C14.824,89.328 15.4586667,89.968 16.256,89.968 L54.8026667,89.968 L74.08,89.968 L83.72,89.968 C84.512,89.968 85.152,89.328 85.152,88.536 L85.152,49.4533333 C87.9573333,47.496 89.8186667,44.24 89.9173333,40.464 L89.9173333,40.464 Z M83.0053333,47.408 L82.9893333,47.408 C82.3893333,47.7626667 81.7706667,48.0133333 81.136,48.2 C81.0533333,48.2266667 80.9733333,48.256 80.8906667,48.2773333 C80.2346667,48.448 79.5733333,48.5546667 78.9013333,48.5546667 C74.864,48.5546667 71.5253333,45.6266667 70.84,41.784 L86.9493333,41.784 C86.52,44.1866667 85.0426667,46.2133333 83.0053333,47.408 L83.0053333,47.408 Z M67.824,38.9173333 L51.4186667,38.9173333 L51.4186667,12.8693333 L67.824,12.8693333 L67.824,38.9173333 L67.824,38.9173333 Z M48.5466667,38.9173333 L32.136,38.9173333 L32.136,12.8693333 L48.5466667,12.8693333 L48.5466667,38.9173333 L48.5466667,38.9173333 Z M48.4,41.7813333 C47.7173333,45.624 44.3733333,48.552 40.344,48.552 C36.3146667,48.552 32.968,45.624 32.2826667,41.7813333 L48.4,41.7813333 L48.4,41.7813333 Z M67.6773333,41.7813333 C66.9946667,45.624 63.656,48.552 59.6213333,48.552 C55.6,48.552 52.256,45.6186667 51.5733333,41.7813333 L67.6773333,41.7813333 L67.6773333,41.7813333 Z M86.8586667,38.9173333 L70.6933333,38.9173333 L70.6933333,12.8693333 L82.496,12.8693333 L86.8586667,38.9173333 L86.8586667,38.9173333 Z M17.464,12.8693333 L29.272,12.8693333 L29.272,38.9173333 L13.1306667,38.9173333 L17.464,12.8693333 L17.464,12.8693333 Z M12.984,41.7813333 L29.1253333,41.7813333 C28.4426667,45.624 25.0986667,48.552 21.072,48.552 C20.3893333,48.552 19.728,48.448 19.072,48.2746667 C18.9946667,48.2533333 18.92,48.2266667 18.8426667,48.208 C18.208,48.016 17.576,47.7653333 16.9733333,47.4106667 C16.9626667,47.4 16.936,47.4053333 16.9253333,47.3946667 C14.8533333,46.1866667 13.376,44.1413333 12.984,41.7813333 L12.984,41.7813333 Z M56.2346667,87.104 L56.2346667,61.0613333 L72.6453333,61.0613333 L72.6453333,87.104 L56.2346667,87.104 L56.2346667,87.104 Z M82.2853333,50.8693333 L82.2853333,87.104 L75.5146667,87.104 L75.5146667,59.6266667 C75.5146667,58.8346667 74.8693333,58.1946667 74.0773333,58.1946667 L54.8,58.1946667 C54.008,58.1946667 53.3626667,58.8346667 53.3626667,59.6266667 L53.3626667,87.1066667 L17.6906667,87.1066667 L17.6906667,50.872 C17.768,50.8986667 17.848,50.888 17.9253333,50.9146667 C18.9253333,51.2106667 19.968,51.424 21.072,51.424 C25.1973333,51.424 28.8,49.152 30.7013333,45.8 C32.608,49.1546667 36.216,51.424 40.3413333,51.424 C44.4666667,51.424 48.0746667,49.152 49.976,45.7946667 C51.8826667,49.1546667 55.4906667,51.424 59.616,51.424 C63.7413333,51.424 67.3493333,49.152 69.256,45.8 C71.1626667,49.1546667 74.7653333,51.424 78.896,51.424 C79.9946667,51.424 81.0373333,51.2106667 82.0373333,50.9093333 C82.12,50.88 82.2026667,50.896 82.2853333,50.8693333 L82.2853333,50.8693333 Z M43.7386667,77.464 L27.328,77.464 L27.328,61.064 L43.7386667,61.064 L43.7386667,77.464 L43.7386667,77.464 Z M45.1706667,58.192 L25.8933333,58.192 C25.096,58.192 24.456,58.832 24.456,59.624 L24.456,78.9013333 C24.456,79.6933333 25.096,80.3333333 25.8933333,80.3333333 L45.1706667,80.3333333 C45.9626667,80.3333333 46.608,79.6933333 46.608,78.9013333 L46.608,59.624 C46.6106667,58.8346667 45.9626667,58.192 45.1706667,58.192 L45.1706667,58.192 Z" sketch:type="MSShapeGroup"></path></g></g></svg>