<svg height='100px' width='100px'  fill="#000000" xmlns="http://www.w3.org/2000/svg" xmlns:xlink="http://www.w3.org/1999/xlink" version="1.1" x="0px" y="0px" viewBox="0 0 90 90" enable-background="new 0 0 90 90" xml:space="preserve"><g><path fill-rule="evenodd" clip-rule="evenodd" d="M54.658,9.428h-1.306l-0.21,0.905c-0.916,3.938-4.266,6.696-8.146,6.705   c-3.874-0.009-7.224-2.767-8.141-6.705l-0.21-0.905h-1.483l-0.169,0.051c-1.052,0.324-25.766,7.938-26.896,8.303l-0.032,0.011   l-0.031,0.011c-0.933,0.359-1.827,1.321-2.335,2.51c-0.562,1.318-0.588,2.722-0.072,3.949l-0.034-0.09   c1.156,3.562,2.608,9.025,3.155,11.081l0.232,0.865c0.42,1.477,2.173,2.487,3.992,2.3c0,0,6.16-0.631,8.893-0.911   c0,2.426,0,38.356,0,38.356c0,2.283,1.618,4.709,4.615,4.709h37.038c2.999,0,4.616-2.426,4.616-4.709c0,0,0-35.931,0-38.356   c1.97,0.202,8.892,0.911,8.892,0.911c1.821,0.188,3.572-0.823,3.991-2.301l0.235-0.87c0.547-2.056,1.999-7.518,3.154-11.075   l-0.034,0.09c0.517-1.228,0.491-2.631-0.075-3.949c-0.506-1.188-1.401-2.15-2.333-2.51l-0.032-0.011l-0.03-0.011   c-1.131-0.364-25.846-7.979-26.897-8.303l-0.167-0.051H54.658z"></path></g></svg>